<svg width="40" height="39" viewBox="0 0 40 39" fill="none" xmlns="http://www.w3.org/2000/svg">
<g filter="url(#filter0_d_165_113)">
<path d="M35.6667 15.8333C35.6667 7.09333 28.5733 0 19.8333 0C11.0933 0 4 7.09333 4 15.8333C4 21.4004 6.8744 26.2906 11.2149 29.114C13.7815 30.7834 16.6667 28.485 16.6667 25.4233V22.1667C16.6667 21.2922 15.9578 20.5833 15.0833 20.5833C14.2089 20.5833 13.5 19.8745 13.5 19V17.4167C13.5 16.5422 14.2089 15.8333 15.0833 15.8333C15.9578 15.8333 16.6667 15.1245 16.6667 14.25V11.875C16.6667 8.81917 19.1525 6.33333 22.2083 6.33333H23.7917C25.1033 6.33333 26.1667 7.39666 26.1667 8.70833C26.1667 10.02 25.1033 11.0833 23.7917 11.0833H23C22.1292 11.0833 21.4167 11.7958 21.4167 12.6667V13.4583C21.4167 14.77 22.48 15.8333 23.7917 15.8333C25.1033 15.8333 26.1667 16.8967 26.1667 18.2083C26.1667 19.52 25.1033 20.5833 23.7917 20.5833C22.48 20.5833 21.4167 21.6467 21.4167 22.9583V25.8137C21.4167 28.9061 24.1687 31.3781 26.9321 29.9902C32.1101 27.3896 35.6667 22.0302 35.6667 15.8333Z" fill="#408C40"/>
</g>
<defs>
<filter id="filter0_d_165_113" x="0" y="0" width="39.6665" height="38.3858" filterUnits="userSpaceOnUse" color-interpolation-filters="sRGB">
<feFlood flood-opacity="0" result="BackgroundImageFix"/>
<feColorMatrix in="SourceAlpha" type="matrix" values="0 0 0 0 0 0 0 0 0 0 0 0 0 0 0 0 0 0 127 0" result="hardAlpha"/>
<feOffset dy="4"/>
<feGaussianBlur stdDeviation="2"/>
<feComposite in2="hardAlpha" operator="out"/>
<feColorMatrix type="matrix" values="0 0 0 0 0 0 0 0 0 0 0 0 0 0 0 0 0 0 0.25 0"/>
<feBlend mode="normal" in2="BackgroundImageFix" result="effect1_dropShadow_165_113"/>
<feBlend mode="normal" in="SourceGraphic" in2="effect1_dropShadow_165_113" result="shape"/>
</filter>
</defs>
</svg>
