<svg width="32" height="32" viewBox="0 0 32 32" fill="none" xmlns="http://www.w3.org/2000/svg">
<g filter="url(#filter0_d_165_116)">
<path d="M10.96 0H21.04C24.88 0 28 3.12 28 6.96V17.04C28 18.8859 27.2667 20.6562 25.9615 21.9615C24.6562 23.2667 22.8859 24 21.04 24H10.96C7.12 24 4 20.88 4 17.04V6.96C4 5.11409 4.73328 3.34379 6.03854 2.03854C7.34379 0.733284 9.11409 0 10.96 0ZM10.72 2.4C9.57427 2.4 8.47546 2.85514 7.6653 3.6653C6.85514 4.47546 6.4 5.57427 6.4 6.72V17.28C6.4 19.668 8.332 21.6 10.72 21.6H21.28C22.4257 21.6 23.5245 21.1449 24.3347 20.3347C25.1449 19.5245 25.6 18.4257 25.6 17.28V6.72C25.6 4.332 23.668 2.4 21.28 2.4H10.72ZM22.3 4.2C22.6978 4.2 23.0794 4.35804 23.3607 4.63934C23.642 4.92064 23.8 5.30218 23.8 5.7C23.8 6.09783 23.642 6.47936 23.3607 6.76066C23.0794 7.04197 22.6978 7.2 22.3 7.2C21.9022 7.2 21.5206 7.04197 21.2393 6.76066C20.958 6.47936 20.8 6.09783 20.8 5.7C20.8 5.30218 20.958 4.92064 21.2393 4.63934C21.5206 4.35804 21.9022 4.2 22.3 4.2ZM16 6C17.5913 6 19.1174 6.63214 20.2426 7.75736C21.3679 8.88258 22 10.4087 22 12C22 13.5913 21.3679 15.1174 20.2426 16.2426C19.1174 17.3679 17.5913 18 16 18C14.4087 18 12.8826 17.3679 11.7574 16.2426C10.6321 15.1174 10 13.5913 10 12C10 10.4087 10.6321 8.88258 11.7574 7.75736C12.8826 6.63214 14.4087 6 16 6ZM16 8.4C15.0452 8.4 14.1295 8.77928 13.4544 9.45442C12.7793 10.1295 12.4 11.0452 12.4 12C12.4 12.9548 12.7793 13.8705 13.4544 14.5456C14.1295 15.2207 15.0452 15.6 16 15.6C16.9548 15.6 17.8705 15.2207 18.5456 14.5456C19.2207 13.8705 19.6 12.9548 19.6 12C19.6 11.0452 19.2207 10.1295 18.5456 9.45442C17.8705 8.77928 16.9548 8.4 16 8.4Z" fill="#408C40"/>
</g>
<defs>
<filter id="filter0_d_165_116" x="0" y="0" width="32" height="32" filterUnits="userSpaceOnUse" color-interpolation-filters="sRGB">
<feFlood flood-opacity="0" result="BackgroundImageFix"/>
<feColorMatrix in="SourceAlpha" type="matrix" values="0 0 0 0 0 0 0 0 0 0 0 0 0 0 0 0 0 0 127 0" result="hardAlpha"/>
<feOffset dy="4"/>
<feGaussianBlur stdDeviation="2"/>
<feComposite in2="hardAlpha" operator="out"/>
<feColorMatrix type="matrix" values="0 0 0 0 0 0 0 0 0 0 0 0 0 0 0 0 0 0 0.25 0"/>
<feBlend mode="normal" in2="BackgroundImageFix" result="effect1_dropShadow_165_116"/>
<feBlend mode="normal" in="SourceGraphic" in2="effect1_dropShadow_165_116" result="shape"/>
</filter>
</defs>
</svg>
